<svg xmlns="http://www.w3.org/2000/svg" viewBox="0 0 170 170">
  <path d="M159 84.86a74.14 74.14 0 1 1-148.29 0 74.14 74.14 0 0 1 148.29 0Z" fill="#333"/>
  <path d="M120 84.86a35.14 35.14 0 1 1-70.29 0 35.14 35.14 0 0 1 70.29 0Z" fill="#fff"/>
  <path d="M106 36.5C106 51.14 96.47 63 84.7 63c-11.76 0-21.3-11.86-21.3-26.5S72.95 10 84.7 10C96.47 10 106 21.86 106 36.5Z" fill="#f54444"/>
  <path d="M106 132.5c0 14.64-9.53 26.5-21.3 26.5-11.76 0-21.3-11.86-21.3-26.5S72.95 106 84.7 106c11.77 0 21.3 11.86 21.3 26.5Z" fill="#418eff"/>
  <path d="M63 84.5C63 99.14 51.9 111 38.2 111c-13.7 0-24.8-11.86-24.8-26.5S24.5 58 38.2 58C51.9 58 63 69.86 63 84.5Z" fill="#ffc31c"/>
  <path d="M156 84.5c0 14.64-11.1 26.5-24.8 26.5-13.7 0-24.8-11.86-24.8-26.5S117.5 58 131.2 58c13.7 0 24.8 11.86 24.8 26.5Z" fill="#5ed346"/>
  <g fill="#fff">
    <path d="M84.97 168.61c-46.43 0-84.2-37.76-84.2-84.19C.78 38 38.55.23 84.98.23c46.42 0 84.19 37.77 84.19 84.2 0 46.41-37.77 84.18-84.2 84.18Zm0-154.33a70.22 70.22 0 0 0-70.14 70.14 70.22 70.22 0 0 0 70.14 70.14 70.22 70.22 0 0 0 70.14-70.14 70.22 70.22 0 0 0-70.14-70.14Z"/>
    <path d="M84.97 168.61c-22.64 0-34.48-42.35-34.48-84.19C50.49 42.6 62.33.23 84.97.23c22.63 0 34.47 42.36 34.47 84.2 0 41.83-11.84 84.18-34.47 84.18Zm0-154.33c-6.94 0-20.43 24.76-20.43 70.14 0 45.39 13.5 70.14 20.43 70.14s20.42-24.76 20.42-70.14c0-45.38-13.49-70.14-20.42-70.14Z"/>
    <path d="M84.97 118.9c-41.84 0-84.2-11.84-84.2-34.48 0-22.63 42.36-34.48 84.2-34.48 41.83 0 84.19 11.85 84.19 34.48 0 22.64-42.36 34.48-84.2 34.48Zm0-54.9c-45.38 0-70.14 13.49-70.14 20.42 0 6.93 24.76 20.43 70.14 20.43 45.38 0 70.14-13.5 70.14-20.43S130.35 64 84.97 64Z"/>
  </g>
</svg>
