<?xml version="1.0" encoding="UTF-8"?>
<svg id="Layer_2" data-name="Layer 2"
  xmlns="http://www.w3.org/2000/svg"
  xmlns:xlink="http://www.w3.org/1999/xlink" viewBox="0 0 122 133.24">
  <defs>
    <style>
      .cls-1 {
        fill: url(#linear-gradient-2);
      }

      .cls-2 {
        fill: #000;
      }
      @media (prefers-color-scheme: dark) { .cls-2 { fill: #fff } }

      .cls-3 {
        fill: url(#linear-gradient-3);
      }

      .cls-4 {
        fill: url(#linear-gradient);
      }
    </style>
    <linearGradient id="linear-gradient" x1="13.09" y1="4.21" x2="132.62" y2="99.02" gradientUnits="userSpaceOnUse">
      <stop offset="0" stop-color="#a32fe0"/>
      <stop offset="1" stop-color="#5945e3"/>
    </linearGradient>
    <linearGradient id="linear-gradient-2" x1="16.8" y1="-.46" x2="136.33" y2="94.34" xlink:href="#linear-gradient"/>
    <linearGradient id="linear-gradient-3" x1="-14.54" y1="39.05" x2="104.99" y2="133.85" xlink:href="#linear-gradient"/>
  </defs>
  <g id="Layer_1-2" data-name="Layer 1">
    <g>
      <path class="cls-4" d="m19.8,48.53c3.4,2.77,7.52,5.48,12.5,7.91,3.66-7.06,17.75-24.8,57.44-19.62l-3.55-13.63c-49.3-4.23-63.47,18.99-66.4,25.34Z"/>
      <path class="cls-1" d="m10.96,41.3c5.52-10.03,24.41-30.58,71.44-26.05L76.37.39S27.06-5.33,2.19,26.95c.89,2.6,3.28,8.21,8.77,14.35Z"/>
      <path class="cls-3" d="m100.37,71.71c-7.91.83-15.27,1.22-22.07,1.22C30.31,72.92,9.06,54.07,0,40.61v62.04s3.88,40.13,120.38,28.48l-20-59.42Z"/>
    </g>
  </g>
</svg>