<?xml version="1.0" encoding="UTF-8" standalone="no"?><!DOCTYPE svg PUBLIC "-//W3C//DTD SVG 1.1//EN" "http://www.w3.org/Graphics/SVG/1.1/DTD/svg11.dtd"><svg width="100%" height="100%" viewBox="0 0 192 225" version="1.1" xmlns="http://www.w3.org/2000/svg" xmlns:xlink="http://www.w3.org/1999/xlink" xml:space="preserve" xmlns:serif="http://www.serif.com/" style="fill-rule:evenodd;clip-rule:evenodd;stroke-linecap:round;stroke-linejoin:round;stroke-miterlimit:1.5;"><g id="elixir"><path d="M91.653,221.213c2.588,1.897 6.106,1.897 8.694,0c15.651,-11.478 69.109,-50.681 86.29,-63.28c2.973,-2.18 3.64,-6.345 1.497,-9.345c-7.153,-10.015 -21.734,-30.428 -21.734,-30.428l-7.97,-2.56l0,-8.598l-30.43,-42.602c0,0 5.87,-19.246 8.505,-27.887c0.315,-1.033 0.166,-2.152 -0.409,-3.067c-0.575,-0.914 -1.519,-1.534 -2.587,-1.697c-4.076,-0.625 -9.615,-1.474 -9.615,-1.474l-8.694,36.157l21.176,29.968l-40.376,12.8l-45.746,-4.73l26.546,-40.07l-8.694,-34.125c0,0 -5.539,0.849 -9.615,1.474c-1.068,0.163 -2.012,0.783 -2.587,1.697c-0.575,0.915 -0.724,2.034 -0.409,3.067c2.635,8.641 8.505,27.887 8.505,27.887l-45.714,64l0.914,6.4l-5.486,0c0,0 -5.792,8.11 -9.848,13.788c-2.143,3 -1.476,7.165 1.497,9.345c17.181,12.599 70.639,51.802 86.29,63.28Z" style="fill:url(#_Linear1);"/><path d="M86.897,4.041c5.843,-2.337 12.363,-2.337 18.206,0c6.303,2.521 14.37,5.748 19.054,7.622c2.206,0.882 3.431,3.251 2.875,5.562c-2.982,12.403 -11.832,49.207 -11.832,49.207l-38.4,0c0,0 -8.85,-36.804 -11.832,-49.207c-0.556,-2.311 0.669,-4.68 2.875,-5.562c4.684,-1.874 12.751,-5.101 19.054,-7.622Z" style="fill:url(#_Linear2);"/><clipPath id="_clip3"><path d="M86.897,4.041c5.843,-2.337 12.363,-2.337 18.206,0c6.303,2.521 14.37,5.748 19.054,7.622c2.206,0.882 3.431,3.251 2.875,5.562c-2.982,12.403 -11.832,49.207 -11.832,49.207l-38.4,0c0,0 -8.85,-36.804 -11.832,-49.207c-0.556,-2.311 0.669,-4.68 2.875,-5.562c4.684,-1.874 12.751,-5.101 19.054,-7.622Z"/></clipPath><g clip-path="url(#_clip3)"><path d="M57.6,15.2c0,0 19.994,-4.443 31.127,-6.917c4.79,-1.065 9.756,-1.065 14.546,0c11.133,2.474 31.127,6.917 31.127,6.917l-19.2,-12.8l-38.4,0l-19.2,12.8Z" style="fill:#a75e42;"/><circle cx="109.686" cy="20.486" r="7.286" style="fill:#723634;"/><circle cx="89.369" cy="28.534" r="6.169" style="fill:#723634;"/><circle cx="100.392" cy="34.408" r="4.392" style="fill:#723634;"/><circle cx="70.236" cy="31.757" r="9.6" style="fill:#723634;"/><circle cx="89.839" cy="44.961" r="6.639" style="fill:#723634;"/><circle cx="89.356" cy="17.604" r="1.996" style="fill:#723634;"/><circle cx="98.897" cy="24.497" r="2.503" style="fill:#723634;"/><circle cx="77.266" cy="17.017" r="3.817" style="fill:#723634;"/><circle cx="111.249" cy="32.069" r="2.449" style="fill:#723634;"/><circle cx="120.495" cy="18.495" r="2.339" style="fill:#723634;"/><circle cx="109.908" cy="44.092" r="5.292" style="fill:#723634;"/><circle cx="121.6" cy="34.121" r="6.4" style="fill:#723634;"/></g><path d="M68.106,30.275l55.788,0l-8.694,36.157l19.2,27.171l-38.4,15.597l-45.746,-4.73l26.187,-39.529l-8.335,-34.666Z" style="fill:#fff;fill-opacity:0.11;"/><path d="M91.781,202.19c2.524,1.801 5.914,1.801 8.438,0c13.327,-9.51 54.438,-38.844 67.916,-48.461c2.414,-1.722 3.026,-5.048 1.383,-7.516c-7.807,-11.735 -28.907,-43.448 -35.804,-53.815c-7.133,-10.721 -49.289,19.27 -83.46,12.072c-5.182,6.793 -21.279,31.562 -27.865,41.748c-1.603,2.467 -0.98,5.758 1.415,7.467c13.414,9.572 54.63,38.981 67.977,48.505Z" style="fill:url(#_Linear4);"/><clipPath id="_clip5"><path d="M91.781,202.19c2.524,1.801 5.914,1.801 8.438,0c13.327,-9.51 54.438,-38.844 67.916,-48.461c2.414,-1.722 3.026,-5.048 1.383,-7.516c-7.807,-11.735 -28.907,-43.448 -35.804,-53.815c-7.133,-10.721 -49.289,19.27 -83.46,12.072c-5.182,6.793 -21.279,31.562 -27.865,41.748c-1.603,2.467 -0.98,5.758 1.415,7.467c13.414,9.572 54.63,38.981 67.977,48.505Z"/></clipPath><g clip-path="url(#_clip5)"><path d="M50.254,104.47c0,0 13.597,14.341 49.153,11.13c16.164,-1.46 43.795,-8.692 34.993,-22.426c-8.862,-13.829 -55.263,-3.174 -55.263,-3.174l-28.883,14.47Z" style="fill:url(#_Linear6);"/><circle cx="140.8" cy="147.6" r="12.8" style="fill:url(#_Linear7);"/><circle cx="64" cy="137.643" r="19.2" style="fill:url(#_Linear8);"/><circle cx="99.2" cy="144.4" r="9.6" style="fill:url(#_Linear9);"/><circle cx="120.256" cy="128.023" r="4.832" style="fill:#9dfeff;fill-opacity:0.47;"/><circle cx="88.645" cy="176.4" r="9.6" style="fill:url(#_Linear10);"/><circle cx="134.4" cy="160.4" r="6.4" style="fill:url(#_Linear11);"/><circle cx="44.357" cy="144.4" r="9.6" style="fill:url(#_Linear12);"/></g><g opacity="0.63"><path d="M62.852,88.852c-1.29,-1.29 -3.09,-1.933 -4.906,-1.754c-1.815,0.18 -3.454,1.165 -4.466,2.682c-4.73,7.095 -12.448,18.672 -17.231,25.846c-1.011,1.518 -1.258,3.42 -0.666,5.145c0.592,1.724 1.954,3.075 3.684,3.651c6.835,2.279 17.014,5.672 23.853,7.951c1.843,0.615 3.862,0.408 5.542,-0.567c1.681,-0.975 2.862,-2.625 3.243,-4.531c1.27,-6.351 3.041,-15.207 4.068,-20.341c0.517,-2.583 -0.292,-5.253 -2.154,-7.115c-2.923,-2.923 -7.441,-7.441 -10.967,-10.967Z" style="fill:#fff;"/><path d="M156.889,164.214c0.798,0.663 1.279,1.632 1.327,2.668c0.048,1.037 -0.343,2.045 -1.077,2.779c-3.048,3.048 -7.924,7.924 -11.557,11.557c-1.108,1.108 -2.681,1.616 -4.227,1.365c-1.547,-0.251 -2.879,-1.231 -3.58,-2.632c-2.286,-4.573 -5.378,-10.756 -7.467,-14.935c-0.591,-1.182 -0.656,-2.559 -0.178,-3.791c0.477,-1.232 1.452,-2.206 2.685,-2.681c3.069,-1.183 6.913,-2.666 9.36,-3.609c1.498,-0.577 3.19,-0.299 4.424,0.726c2.613,2.172 7.218,6 10.29,8.553Z" style="fill:#fff;"/><path d="M66.378,36.371c-0.762,0.072 -1.451,0.485 -1.873,1.124c-0.422,0.639 -0.532,1.434 -0.3,2.164c0.661,2.077 1.52,4.773 2.074,6.514c0.334,1.051 1.31,1.764 2.412,1.764c2.167,0 5.767,0 8.191,0c1.398,0 2.531,-1.133 2.531,-2.531c0,-2.16 0,-5.259 0,-7.487c0,-0.713 -0.3,-1.393 -0.828,-1.872c-0.527,-0.48 -1.232,-0.715 -1.942,-0.648c-2.852,0.27 -7.288,0.69 -10.265,0.972Z" style="fill:#fff;"/></g><path d="M57.6,70.8l-6.4,-5.487c0,0 12.922,3.693 17.564,5.02c1.069,0.305 2.031,0.904 2.777,1.729c3.934,4.35 16.976,18.775 22.233,24.59c0.569,0.63 1.378,0.989 2.226,0.989c0.848,0 1.657,-0.359 2.226,-0.989c5.257,-5.815 18.299,-20.24 22.233,-24.59c0.746,-0.825 1.708,-1.424 2.777,-1.729c4.642,-1.327 17.564,-5.02 17.564,-5.02l-6.4,5.487l-19.2,13.125c0,0 -10.535,20.893 -15.998,31.725c-0.61,1.209 -1.848,1.971 -3.202,1.971c-1.354,0 -2.592,-0.762 -3.202,-1.971c-5.463,-10.832 -15.998,-31.725 -15.998,-31.725l-19.2,-13.125Z" style="fill:#a55832;"/><path d="M96,70.8l35.9,0c1.613,0 3.173,-0.577 4.398,-1.627c1.823,-1.563 4.611,-3.953 6.76,-5.796c0.73,-0.626 1.119,-1.561 1.049,-2.52c-0.071,-0.959 -0.593,-1.827 -1.407,-2.339c-2.087,-1.313 -4.661,-2.933 -6.385,-4.017c-1.251,-0.787 -2.699,-1.205 -4.178,-1.205c-8.236,0 -36.137,0 -36.137,0l-36.137,0c-1.479,0 -2.927,0.418 -4.178,1.205c-1.724,1.084 -4.298,2.704 -6.385,4.017c-0.814,0.512 -1.336,1.38 -1.407,2.339c-0.07,0.959 0.319,1.894 1.049,2.52c2.149,1.843 4.937,4.233 6.76,5.796c1.225,1.05 2.785,1.627 4.398,1.627l35.9,0Z" style="fill:#d68e31;"/><clipPath id="_clip13"><path d="M96,70.8l35.9,0c1.613,0 3.173,-0.577 4.398,-1.627c1.823,-1.563 4.611,-3.953 6.76,-5.796c0.73,-0.626 1.119,-1.561 1.049,-2.52c-0.071,-0.959 -0.593,-1.827 -1.407,-2.339c-2.087,-1.313 -4.661,-2.933 -6.385,-4.017c-1.251,-0.787 -2.699,-1.205 -4.178,-1.205c-8.236,0 -36.137,0 -36.137,0l-36.137,0c-1.479,0 -2.927,0.418 -4.178,1.205c-1.724,1.084 -4.298,2.704 -6.385,4.017c-0.814,0.512 -1.336,1.38 -1.407,2.339c-0.07,0.959 0.319,1.894 1.049,2.52c2.149,1.843 4.937,4.233 6.76,5.796c1.225,1.05 2.785,1.627 4.398,1.627l35.9,0Z"/></clipPath><g clip-path="url(#_clip13)"><path d="M141.877,58l-25.097,-4.704" style="fill:none;stroke:#d8ca3a;stroke-width:6.59px;"/><path d="M50.123,58l24.996,-4.704" style="fill:none;stroke:#d8ca3a;stroke-width:6.59px;"/></g><path d="M122.029,73.923c1.876,-2.338 1.535,-5.749 -0.768,-7.669c-5.782,-4.818 -16.167,-13.474 -21.647,-18.042c-2.12,-1.767 -5.175,-1.853 -7.39,-0.207c-5.854,4.348 -17.105,12.707 -23.492,17.451c-1.224,0.909 -2.016,2.286 -2.186,3.801c-0.171,1.516 0.295,3.034 1.287,4.192c5.882,6.872 17.12,20.001 23.479,27.43c1.156,1.352 2.855,2.118 4.634,2.09c1.779,-0.029 3.453,-0.848 4.567,-2.235c5.93,-7.39 16.212,-20.202 21.516,-26.811Z" style="fill:#d68f31;"/><clipPath id="_clip14"><path d="M122.029,73.923c1.876,-2.338 1.535,-5.749 -0.768,-7.669c-5.782,-4.818 -16.167,-13.474 -21.647,-18.042c-2.12,-1.767 -5.175,-1.853 -7.39,-0.207c-5.854,4.348 -17.105,12.707 -23.492,17.451c-1.224,0.909 -2.016,2.286 -2.186,3.801c-0.171,1.516 0.295,3.034 1.287,4.192c5.882,6.872 17.12,20.001 23.479,27.43c1.156,1.352 2.855,2.118 4.634,2.09c1.779,-0.029 3.453,-0.848 4.567,-2.235c5.93,-7.39 16.212,-20.202 21.516,-26.811Z"/></clipPath><g clip-path="url(#_clip14)"><path d="M96.472,60.232c0.111,-0.212 0.05,-0.474 -0.143,-0.615c-0.193,-0.142 -0.46,-0.121 -0.629,0.048c-3.477,3.483 -10.12,10.138 -13.429,13.452c-1.139,1.142 -1.287,2.94 -0.348,4.252c2.722,3.804 8.208,11.47 11.322,15.822c0.568,0.793 1.459,1.293 2.432,1.365c0.973,0.071 1.928,-0.294 2.605,-0.996c3.791,-3.928 10.421,-10.797 12.646,-13.102c0.418,-0.434 0.413,-1.121 -0.011,-1.549c-2.003,-2.019 -7.443,-7.504 -10.114,-10.197c-0.335,-0.338 -0.818,-0.483 -1.283,-0.387c-0.466,0.097 -0.851,0.422 -1.024,0.865c-0.716,1.837 -1.758,4.505 -2.394,6.135c-0.074,0.19 -0.015,0.407 0.146,0.532c0.161,0.126 0.386,0.132 0.553,0.014c0.776,-0.55 1.763,-1.248 2.509,-1.776c0.291,-0.207 0.654,-0.288 1.006,-0.226c0.352,0.062 0.664,0.263 0.868,0.557c0.697,1.007 1.725,2.492 2.465,3.559c0.508,0.735 0.333,1.741 -0.393,2.261c-1.347,0.964 -3.451,2.47 -4.924,3.523c-0.949,0.68 -2.263,0.499 -2.994,-0.412c-1.654,-2.063 -4.458,-5.56 -5.825,-7.266c-0.485,-0.605 -0.566,-1.439 -0.208,-2.126c1.428,-2.735 5.102,-9.776 7.167,-13.733Z" style="fill:#a55832;"/><path d="M64,77.2l32,-32l32,32" style="fill:none;stroke:#d8ca3a;stroke-width:8.32px;"/></g></g><defs><linearGradient id="_Linear1" x1="0" y1="0" x2="1" y2="0" gradientUnits="userSpaceOnUse" gradientTransform="matrix(85.9608,98.2246,-98.2246,85.9608,54.8392,83.6)"><stop offset="0" style="stop-color:#aee0d6;stop-opacity:0.31"/><stop offset="1" style="stop-color:#83a9f4;stop-opacity:0.31"/></linearGradient><linearGradient id="_Linear2" x1="0" y1="0" x2="1" y2="0" gradientUnits="userSpaceOnUse" gradientTransform="matrix(2.74321e-15,44.8,-44.8,2.74321e-15,96,13.2)"><stop offset="0" style="stop-color:#94473a;stop-opacity:1"/><stop offset="1" style="stop-color:#77352a;stop-opacity:1"/></linearGradient><linearGradient id="_Linear4" x1="0" y1="0" x2="1" y2="0" gradientUnits="userSpaceOnUse" gradientTransform="matrix(12.8,96,-96,12.8,89.6,102.8)"><stop offset="0" style="stop-color:#2896c6;stop-opacity:1"/><stop offset="1" style="stop-color:#3feace;stop-opacity:1"/></linearGradient><linearGradient id="_Linear6" x1="0" y1="0" x2="1" y2="0" gradientUnits="userSpaceOnUse" gradientTransform="matrix(-0.494075,19.2689,-19.2689,-0.494075,88.8834,92.4429)"><stop offset="0" style="stop-color:#3d61b6;stop-opacity:1"/><stop offset="1" style="stop-color:#3fcde2;stop-opacity:1"/></linearGradient><linearGradient id="_Linear7" x1="0" y1="0" x2="1" y2="0" gradientUnits="userSpaceOnUse" gradientTransform="matrix(24.7038,66.7002,-66.7002,24.7038,80.6106,101.937)"><stop offset="0" style="stop-color:#72fde5;stop-opacity:1"/><stop offset="1" style="stop-color:#2b9be0;stop-opacity:1"/></linearGradient><linearGradient id="_Linear8" x1="0" y1="0" x2="1" y2="0" gradientUnits="userSpaceOnUse" gradientTransform="matrix(24.7038,66.7002,-66.7002,24.7038,80.6106,101.937)"><stop offset="0" style="stop-color:#72fde5;stop-opacity:1"/><stop offset="1" style="stop-color:#2b9be0;stop-opacity:1"/></linearGradient><linearGradient id="_Linear9" x1="0" y1="0" x2="1" y2="0" gradientUnits="userSpaceOnUse" gradientTransform="matrix(24.7038,66.7002,-66.7002,24.7038,80.6106,101.937)"><stop offset="0" style="stop-color:#72fde5;stop-opacity:1"/><stop offset="1" style="stop-color:#2b9be0;stop-opacity:1"/></linearGradient><linearGradient id="_Linear10" x1="0" y1="0" x2="1" y2="0" gradientUnits="userSpaceOnUse" gradientTransform="matrix(24.7038,66.7002,-66.7002,24.7038,80.6106,101.937)"><stop offset="0" style="stop-color:#72fde5;stop-opacity:1"/><stop offset="1" style="stop-color:#2b9be0;stop-opacity:1"/></linearGradient><linearGradient id="_Linear11" x1="0" y1="0" x2="1" y2="0" gradientUnits="userSpaceOnUse" gradientTransform="matrix(24.7038,66.7002,-66.7002,24.7038,80.6106,101.937)"><stop offset="0" style="stop-color:#72fde5;stop-opacity:1"/><stop offset="1" style="stop-color:#2b9be0;stop-opacity:1"/></linearGradient><linearGradient id="_Linear12" x1="0" y1="0" x2="1" y2="0" gradientUnits="userSpaceOnUse" gradientTransform="matrix(24.7038,66.7002,-66.7002,24.7038,80.6106,101.937)"><stop offset="0" style="stop-color:#72fde5;stop-opacity:1"/><stop offset="1" style="stop-color:#2b9be0;stop-opacity:1"/></linearGradient></defs></svg>