<?xml version="1.0" encoding="UTF-8" standalone="no"?><!DOCTYPE svg PUBLIC "-//W3C//DTD SVG 1.1//EN" "http://www.w3.org/Graphics/SVG/1.1/DTD/svg11.dtd"><svg width="100%" height="100%" viewBox="0 0 192 200" version="1.1" xmlns="http://www.w3.org/2000/svg" xmlns:xlink="http://www.w3.org/1999/xlink" xml:space="preserve" xmlns:serif="http://www.serif.com/" style="fill-rule:evenodd;clip-rule:evenodd;stroke-linejoin:round;stroke-miterlimit:2;"><g id="Icon"><path d="M72.697,19.384c0,0 18.801,-15.467 22.122,-18.199c0.291,-0.24 0.71,-0.247 1.011,-0.018c3.052,2.332 18.856,14.419 23.473,18.217c1.351,1.111 1.686,2.951 0.804,4.415c-0.938,1.557 -2.098,3.483 -2.819,4.679c-0.45,0.746 -1.054,1.402 -1.779,1.928c-2.655,1.929 -9.206,6.69 -9.206,6.69l6.127,5.546c0,0 12.369,-8.304 19.631,-13.179c1.311,-0.88 2.958,-1.211 4.542,-0.914c1.585,0.298 2.965,1.198 3.807,2.483c5.633,8.721 17.783,26.406 27.993,34.072c5.177,2.077 15.077,4.45 20.281,5.63c0.668,0.154 1.191,0.636 1.364,1.256c0.172,0.62 -0.033,1.278 -0.536,1.714c-4.936,4.289 -15.649,13.593 -19.747,17.152c-0.404,0.351 -0.618,0.851 -0.584,1.364c0.034,0.513 0.313,0.985 0.76,1.286c1.606,1.084 3.916,2.643 5.392,3.638c0.914,0.617 2.048,0.883 3.167,0.743c2.586,-0.321 7.535,-0.937 11.262,-1.401c0.797,-0.1 1.579,0.261 1.978,0.91c0.398,0.65 0.335,1.46 -0.162,2.049c-3.119,3.7 -8.031,9.528 -11.578,13.735c-2.657,3.151 -7.037,4.578 -11.224,3.656c-7.839,-1.725 -19.588,-4.311 -19.588,-4.311l-27.29,36.882c0,0 -1.656,5.012 3.317,20.053c0.439,1.46 -0.044,3.026 -1.248,4.046c-14.504,12.341 -25.294,23.641 -27.469,25.951c-0.104,0.112 -0.25,0.176 -0.403,0.177c-0.153,0 -0.299,-0.063 -0.404,-0.174c-2.201,-2.303 -13.147,-13.607 -27.658,-25.954c-1.204,-1.02 -1.687,-2.586 -1.248,-4.046c4.973,-15.041 3.317,-20.053 3.317,-20.053l-27.29,-36.882c0,0 -11.749,2.586 -19.588,4.311c-4.187,0.922 -8.567,-0.505 -11.224,-3.656c-3.547,-4.207 -8.459,-10.035 -11.578,-13.735c-0.497,-0.589 -0.56,-1.399 -0.162,-2.049c0.399,-0.649 1.181,-1.01 1.978,-0.91c3.727,0.464 8.676,1.08 11.262,1.401c1.119,0.14 2.253,-0.126 3.167,-0.743c1.476,-0.995 3.786,-2.554 5.392,-3.638c0.447,-0.301 0.726,-0.773 0.76,-1.286c0.034,-0.513 -0.18,-1.013 -0.584,-1.364c-4.098,-3.559 -14.811,-12.863 -19.747,-17.152c-0.503,-0.436 -0.708,-1.094 -0.536,-1.714c0.173,-0.62 0.696,-1.102 1.364,-1.256c5.204,-1.18 15.104,-3.553 20.281,-5.63c10.21,-7.666 22.36,-25.351 27.993,-34.072c0.842,-1.285 2.222,-2.185 3.807,-2.483c1.584,-0.297 3.231,0.034 4.542,0.914c7.262,4.875 19.631,13.179 19.631,13.179l6.127,-5.546c0,0 -6.551,-4.761 -9.206,-6.69c-0.725,-0.526 -1.329,-1.182 -1.779,-1.928c-0.721,-1.196 -1.881,-3.122 -2.819,-4.679c-0.882,-1.464 -0.547,-3.304 0.804,-4.415Z" style="fill:url(#_Linear1);"/><path d="M93.398,33.89c1.715,-0.375 3.489,-0.375 5.204,0c4.967,1.084 15.315,3.342 15.315,3.342c0.673,0.27 1.317,0.599 1.923,0.982c2.281,1.443 19.449,8.241 20.336,9.818c3.593,6.391 12.875,22.9 15.975,28.414c0.597,1.061 0.309,2.367 -0.689,3.123c-2.303,1.746 -6.301,4.777 -7.989,6.056c-0.487,0.369 -0.722,0.954 -0.615,1.53c0.551,2.962 2.258,12.15 2.85,15.332c0.134,0.724 0.427,1.415 0.86,2.03c2.073,2.947 8.542,12.137 11.794,16.757c1.128,1.604 0.978,3.71 -0.369,5.16c-5.118,5.509 -23.935,27.507 -26.467,30.878c-0.61,0.811 -1.418,1.477 -2.357,1.941c-3.368,1.665 -11.918,5.892 -17.241,8.524c-0.987,0.488 -2.173,0.475 -3.148,-0.034c-0.974,-0.51 -1.603,-1.446 -1.669,-2.485c-0.783,-12.261 -2.849,-44.629 -3.411,-53.435c-0.09,-1.405 0.553,-2.764 1.728,-3.651c4.72,-3.564 16.974,-12.816 20.279,-15.312c0.52,-0.393 0.799,-1 0.744,-1.621c-0.178,-2.022 -0.591,-6.724 -0.906,-10.294c-0.082,-0.937 -0.694,-1.763 -1.605,-2.167c-0.912,-0.405 -1.986,-0.327 -2.82,0.204c-4.193,2.669 -14.922,6.466 -14.922,6.466l-10.198,1.137c0,0 -10.198,-1.137 -10.198,-1.137c0,0 -10.729,-3.797 -14.922,-6.466c-0.834,-0.531 -1.908,-0.609 -2.82,-0.204c-0.911,0.404 -1.523,1.23 -1.605,2.167c-0.315,3.57 -0.728,8.272 -0.906,10.294c-0.055,0.621 0.224,1.228 0.744,1.621c3.305,2.496 15.559,11.748 20.279,15.312c1.175,0.887 1.818,2.246 1.728,3.651c-0.562,8.806 -2.628,41.174 -3.411,53.435c-0.066,1.039 -0.695,1.975 -1.669,2.485c-0.975,0.509 -2.161,0.522 -3.148,0.034c-5.323,-2.632 -13.873,-6.859 -17.241,-8.524c-0.939,-0.464 -1.747,-1.13 -2.357,-1.941c-2.532,-3.371 -21.349,-25.369 -26.467,-30.878c-1.347,-1.45 -1.497,-3.556 -0.369,-5.16c3.252,-4.62 9.721,-13.81 11.794,-16.757c0.433,-0.615 0.726,-1.306 0.86,-2.03c0.592,-3.182 2.299,-12.37 2.85,-15.332c0.107,-0.576 -0.128,-1.161 -0.615,-1.53c-1.688,-1.279 -5.686,-4.31 -7.989,-6.056c-0.998,-0.756 -1.286,-2.062 -0.689,-3.123c3.1,-5.514 12.382,-22.023 15.975,-28.414c0.887,-1.577 18.055,-8.375 20.336,-9.818c0.606,-0.383 1.25,-0.712 1.923,-0.982c0,0 10.348,-2.258 15.315,-3.342Z" style="fill:url(#_Linear2);"/></g><defs><linearGradient id="_Linear1" x1="0" y1="0" x2="1" y2="0" gradientUnits="userSpaceOnUse" gradientTransform="matrix(1.00828e-14,164.664,-164.664,1.00828e-14,94.1868,11.4028)"><stop offset="0" style="stop-color:#a6322c;stop-opacity:1"/><stop offset="1" style="stop-color:#67413e;stop-opacity:1"/></linearGradient><linearGradient id="_Linear2" x1="0" y1="0" x2="1" y2="0" gradientUnits="userSpaceOnUse" gradientTransform="matrix(3.66056e-15,-59.7815,59.7815,3.66056e-15,112.94,151.693)"><stop offset="0" style="stop-color:#e6cd53;stop-opacity:1"/><stop offset="1" style="stop-color:#e8a843;stop-opacity:1"/></linearGradient></defs></svg>